<?xml version="1.0" standalone="no"?>
<!DOCTYPE svg PUBLIC "-//W3C//DTD SVG 20010904//EN"
 "http://www.w3.org/TR/2001/REC-SVG-20010904/DTD/svg10.dtd">
<svg version="1.0" xmlns="http://www.w3.org/2000/svg"
 width="420.000000pt" height="347.000000pt" viewBox="0 0 420.000000 347.000000"
 preserveAspectRatio="xMidYMid meet">

<g transform="translate(0.000000,347.000000) scale(0.100000,-0.100000)"
fill="#000000" stroke="none">
<path d="M2834 2400 c-4 -16 -10 -27 -14 -25 -5 3 -6 -13 -3 -35 7 -50 -9 -52
-26 -4 -19 53 -23 35 -6 -25 17 -55 13 -80 -10 -61 -8 7 -19 9 -25 5 -5 -3
-10 -3 -11 2 -4 48 -23 73 -53 73 -19 0 -18 -2 9 -20 18 -12 24 -20 14 -20 -8
0 -31 -11 -49 -25 l-35 -26 -7 28 c-5 15 -6 38 -3 51 5 19 1 22 -25 22 -23 0
-30 -4 -30 -20 0 -23 -10 -26 -28 -8 -9 9 -15 9 -23 1 -8 -8 -6 -15 8 -24 10
-8 19 -24 21 -36 2 -18 -1 -20 -20 -16 -13 3 -28 10 -34 15 -14 10 -41 1 -48
-17 -3 -9 7 -15 34 -20 35 -6 38 -8 25 -21 -8 -9 -31 -18 -50 -21 -35 -6 -76
-44 -55 -51 5 -2 10 -17 10 -32 0 -30 14 -47 25 -30 3 5 15 15 25 20 47 25 4
-19 -78 -80 -48 -36 -93 -73 -100 -83 -7 -9 -18 -15 -23 -12 -18 12 -9 -12 13
-31 19 -17 21 -17 15 -1 -5 15 0 17 38 17 41 0 45 -2 45 -25 0 -14 -3 -25 -7
-26 -5 0 -16 -2 -25 -4 -10 -2 -21 3 -25 10 -9 14 -70 7 -144 -16 -26 -8 -78
-8 -200 0 -90 7 -198 14 -240 16 -41 2 -87 7 -102 10 -33 9 -80 -2 -75 -16 3
-10 96 -17 211 -18 50 0 64 -16 22 -27 -30 -7 -34 -34 -4 -34 11 0 17 5 14 10
-4 6 7 10 24 10 21 0 31 -5 31 -15 0 -12 13 -15 55 -15 34 0 55 -4 55 -11 0
-8 -14 -10 -40 -6 -43 6 -52 -6 -22 -29 15 -12 11 -13 -33 -13 -67 1 -162 15
-120 19 27 2 26 3 -15 13 -32 9 -46 18 -48 32 -2 15 -1 17 7 6 13 -20 62 -6
54 15 -4 11 -17 15 -42 13 -20 -1 -43 -1 -51 0 -13 1 -13 2 0 11 12 8 9 10
-12 10 -16 0 -28 -4 -28 -10 0 -5 -11 -10 -25 -10 -14 0 -34 -9 -45 -20 -11
-11 -25 -20 -30 -20 -15 0 -12 -67 3 -74 10 -5 10 -7 0 -12 -18 -8 -16 -59 2
-74 8 -7 15 -18 15 -26 0 -15 34 -36 44 -27 3 3 6 -1 6 -9 0 -9 9 -18 20 -21
11 -3 20 -12 20 -20 0 -10 7 -13 20 -10 11 3 20 14 20 24 0 14 7 19 25 19 16
0 25 6 25 15 0 10 10 15 29 15 16 0 31 4 33 10 2 5 25 11 51 14 36 4 50 1 54
-10 3 -8 19 -14 42 -14 65 -1 186 -34 189 -52 3 -14 -5 -17 -52 -14 -78 4 -80
1 -91 -84 -7 -51 -14 -82 -20 -88 -3 -3 2 -16 10 -29 15 -23 15 -23 -31 -23
-44 0 -46 1 -42 25 4 19 1 25 -12 25 -22 0 -31 -32 -14 -48 7 -7 33 -12 58
-12 39 0 44 -2 41 -20 -2 -11 0 -20 5 -20 5 0 7 -7 4 -15 -5 -12 4 -15 47 -14
30 1 44 4 32 6 -37 7 -26 23 15 23 20 1 48 7 62 15 l25 15 -30 -2 c-16 0 -46
0 -65 1 l-35 3 28 10 c26 9 33 28 29 81 -2 16 6 18 72 15 71 -3 73 -3 53 -20
-20 -18 -20 -18 4 -19 l24 -1 -25 -8 -25 -8 25 -1 c25 -2 25 -2 -5 -18 -16
-10 -37 -16 -45 -15 -13 3 -13 2 0 -7 8 -6 26 -11 40 -12 l25 -1 -25 -8 -25
-7 26 -11 c14 -5 38 -8 55 -6 24 4 26 3 9 -5 -11 -5 -31 -10 -44 -10 -20 -1
-22 -3 -11 -16 12 -14 15 -14 36 0 13 8 45 15 74 15 32 0 49 4 45 10 -3 5 -16
10 -28 10 -20 1 -20 2 5 16 25 13 31 13 65 -7 34 -19 35 -20 10 -16 -15 2 -30
0 -33 -4 -3 -5 5 -9 16 -9 15 0 20 -5 17 -13 -4 -10 2 -13 20 -9 22 4 24 2 19
-15 -5 -17 -1 -22 24 -26 38 -8 44 -47 8 -47 -15 0 -19 3 -11 8 19 12 1 29
-37 36 l-35 6 35 -14 c35 -14 35 -14 11 -23 -22 -9 -21 -10 22 -23 26 -7 47
-17 47 -21 0 -5 8 -9 18 -10 9 0 1 -7 -18 -14 l-35 -13 30 -1 c23 -1 27 -4 15
-11 -12 -8 -11 -10 7 -10 12 0 25 -4 28 -10 3 -5 30 -10 58 -9 l52 1 -35 12
c-23 8 -30 15 -20 18 9 3 2 9 -20 15 -28 8 -12 10 86 11 66 0 127 -4 135 -10
9 -6 -13 -8 -71 -4 l-85 5 70 -13 70 -13 -60 -3 -60 -3 83 -7 c88 -8 122 -20
56 -20 -28 0 -35 -3 -24 -9 8 -6 18 -7 22 -5 4 3 8 -2 8 -10 0 -19 30 -21 79
-4 48 16 47 16 25 33 -17 13 -15 14 29 15 26 0 47 5 47 10 0 6 11 10 25 10 26
0 34 15 13 23 -7 3 -1 6 14 6 15 1 30 -4 33 -9 5 -8 11 -7 20 0 18 15 61 9 58
-8 -2 -6 4 -12 12 -12 8 0 12 -6 10 -12 -3 -7 -1 -19 4 -26 10 -17 47 -11 44
6 -2 7 2 12 8 12 5 0 7 5 4 10 -3 6 1 10 11 10 13 0 14 3 4 15 -11 13 -6 15
36 16 46 2 47 2 14 8 -20 4 -34 12 -33 19 2 7 -7 12 -20 12 -18 0 -19 2 -7 10
8 5 45 7 83 3 46 -4 71 -2 76 5 5 8 18 8 49 0 30 -8 49 -8 65 0 21 10 21 11 2
12 -83 4 -249 30 -258 40 -10 10 1 11 53 6 36 -4 76 -9 90 -12 14 -2 41 -6 60
-9 29 -4 31 -3 10 4 -22 8 -21 9 15 10 44 1 87 20 50 22 -14 0 -11 3 10 10 30
10 120 4 139 -9 6 -4 27 -13 46 -19 31 -11 32 -12 5 -7 -16 3 -39 8 -50 11
-18 5 -18 4 -3 -11 10 -10 35 -17 65 -17 29 -1 37 -4 20 -6 -15 -2 -25 -9 -22
-14 4 -5 -1 -9 -9 -9 -9 0 -16 5 -16 11 0 6 -9 9 -20 6 -11 -3 -23 -1 -26 4
-3 5 -10 9 -17 9 -6 0 -2 -6 9 -14 18 -14 18 -15 -6 -25 -24 -9 -24 -10 -2
-10 12 -1 22 4 22 9 0 16 26 12 41 -7 12 -15 12 -16 -3 -10 -10 3 -18 2 -18
-3 0 -15 124 -12 139 3 9 7 11 7 8 1 -8 -14 15 -24 51 -23 27 1 27 1 -3 9 -27
7 -26 8 13 7 69 -1 47 -24 -30 -32 -21 -3 -38 0 -38 5 0 6 -28 10 -62 10 -38
0 -58 -4 -52 -9 11 -11 144 -31 144 -21 0 11 123 10 137 -2 7 -6 16 -8 20 -4
3 3 0 7 -8 7 -8 1 2 5 21 9 l35 7 -40 2 c-38 2 -94 19 -67 20 6 1 12 6 12 11
0 6 -16 10 -36 10 -21 0 -33 4 -29 10 3 5 24 9 46 8 21 -1 42 2 46 5 3 4 -7 7
-23 8 -32 0 -80 17 -54 18 13 1 13 2 0 11 -12 8 -12 10 5 10 17 0 17 2 5 10
-11 7 -5 10 23 10 20 0 37 -5 37 -10 0 -6 3 -9 8 -9 4 1 16 1 27 0 19 -2 19
-2 3 -15 -33 -25 -18 -31 64 -29 53 1 74 -1 58 -6 -14 -4 -41 -6 -60 -4 -28 3
-31 1 -15 -6 17 -8 16 -10 -12 -10 -17 -1 -35 -6 -39 -12 -4 -8 3 -9 26 -4 23
5 30 4 26 -4 -5 -8 12 -11 53 -11 l61 0 0 330 0 330 -73 0 c-68 0 -77 -2 -110
-31 -21 -17 -37 -36 -37 -42 0 -20 74 3 105 33 17 16 34 30 38 30 17 0 4 -17
-34 -45 -34 -25 -37 -31 -22 -37 16 -6 16 -7 -3 -7 -11 -1 -30 -10 -42 -21
-20 -19 -34 -20 -224 -19 -166 1 -191 3 -138 11 36 5 79 11 95 13 17 3 46 20
65 38 l35 32 -85 6 c-47 3 -152 1 -234 -4 -120 -7 -150 -6 -157 5 -7 10 -9 10
-9 -2 0 -13 -1 -13 -10 0 -6 10 -10 11 -10 3 0 -9 -21 -13 -72 -12 -128 1
-477 25 -485 34 -5 4 8 5 29 1 25 -5 37 -3 40 6 4 10 8 10 19 2 20 -16 151
-17 161 -2 6 10 10 10 17 0 6 -10 25 -12 72 -8 74 7 429 11 637 7 l144 -3 -24
-25 c-19 -21 -20 -25 -5 -22 10 2 17 8 17 14 -2 10 26 23 50 24 10 0 9 -3 -5
-11 -31 -18 -88 -78 -81 -85 3 -3 6 -1 6 5 0 7 5 12 11 12 5 0 7 -4 4 -10 -3
-5 -1 -10 5 -10 16 0 70 58 81 86 5 15 15 24 25 22 9 -2 19 3 21 10 4 9 -1 10
-19 3 -27 -10 -78 -3 -78 10 0 12 4 12 150 13 l125 1 3 144 c2 98 -1 147 -8
151 -7 4 -33 3 -58 -2 -26 -6 -82 -11 -124 -12 -42 -1 -80 -5 -85 -10 -4 -5
11 -7 35 -4 27 2 42 0 42 -8 0 -16 -46 -21 -158 -17 -118 4 -122 4 -122 15 0
16 -39 8 -65 -15 -43 -36 -26 -57 46 -57 56 0 59 -1 59 -25 0 -14 -7 -28 -16
-32 -8 -3 -13 -11 -10 -18 5 -14 -14 -25 -43 -25 -9 0 -34 17 -54 37 -38 36
-39 36 -67 20 -15 -9 -38 -17 -50 -17 -13 0 -24 -8 -27 -20 -8 -29 -43 -25
-80 10 -21 20 -38 28 -50 24 -15 -5 -16 -4 -3 5 10 7 11 11 3 11 -9 0 -13 15
-13 43 0 27 3 37 9 29 6 -10 10 -3 15 22 4 20 4 41 1 46 -3 6 -1 10 5 10 7 0
41 -29 78 -65 73 -72 98 -82 89 -36 -5 22 -3 28 10 27 14 -1 17 9 17 54 1 54
0 55 -33 66 -20 7 -38 20 -43 34 -7 19 -13 21 -43 16 -19 -4 -35 -3 -35 2 0
18 60 62 82 59 30 -3 38 32 9 40 -22 6 -29 23 -9 23 19 0 -4 17 -33 23 -16 4
-33 1 -45 -8 -28 -21 -32 -19 -37 18 l-4 32 -1 -36 c-2 -42 -11 -51 -68 -67
-55 -16 -56 -15 -49 9 4 13 3 19 -2 16 -6 -4 -9 20 -9 58 1 58 -1 64 -16 59
-10 -3 -18 0 -18 7 0 9 -3 9 -14 0 -11 -9 -15 -9 -19 1 -2 7 -7 -15 -12 -49
-4 -35 -11 -61 -15 -58 -5 3 -11 1 -15 -5 -4 -6 -11 -8 -16 -5 -5 4 -9 1 -9
-4 0 -6 -5 -10 -12 -8 -7 1 -12 -3 -13 -10 -1 -26 -15 -22 -49 13 -31 32 -39
36 -70 30 -19 -4 -37 -3 -40 2 -3 5 8 9 24 9 17 0 33 3 37 7 9 9 -16 26 -31
20 -6 -2 -18 1 -26 6 -13 9 -11 14 13 35 16 14 22 25 15 25 -8 0 -19 -5 -26
-12 -6 -6 -15 -9 -19 -5 -4 4 -1 13 5 19 18 18 14 31 -7 25 -13 -3 -21 2 -25
16 -4 17 -7 18 -20 7 -11 -8 -16 -9 -16 -1 0 24 -21 9 -26 -19z m76 -75 c-7
-9 -15 -13 -17 -11 -7 7 7 26 19 26 6 0 6 -6 -2 -15z m-130 -116 c0 -13 -13
-11 -38 7 -32 22 -27 35 8 18 17 -9 30 -20 30 -25z m560 -13 c0 -2 -7 -6 -15
-10 -8 -3 -15 -1 -15 4 0 6 7 10 15 10 8 0 15 -2 15 -4z m7 -52 c-3 -3 -12 -4
-19 -1 -8 3 -5 6 6 6 11 1 17 -2 13 -5z m-234 -62 c-5 -14 -3 -15 7 -5 9 8 19
9 32 2 22 -12 23 -37 2 -60 -13 -14 -13 -22 -4 -39 15 -28 10 -25 -83 43 -64
47 -84 72 -38 47 14 -7 21 -7 21 -1 0 6 11 13 25 17 14 3 22 10 19 15 -3 5 2
6 10 3 9 -3 12 -13 9 -22z m377 8 c0 -5 -10 -10 -22 -10 -19 0 -20 2 -8 10 19
13 30 13 30 0z m-280 -29 c0 -12 -20 -25 -27 -18 -7 7 6 27 18 27 5 0 9 -4 9
-9z m-654 -53 c-10 -56 -13 -63 -22 -63 -14 0 -16 38 -5 68 15 39 35 35 27 -5z
m719 9 c0 -12 14 -13 45 -6 12 3 16 -9 18 -57 l3 -62 -58 -5 c-32 -3 -70 -9
-85 -13 -18 -4 -28 -2 -28 5 0 6 6 11 14 11 26 0 29 21 7 44 -12 12 -21 27
-21 33 0 15 53 53 74 53 9 0 16 5 16 12 0 15 15 0 15 -15z m915 -29 c0 -13 -3
-18 -8 -12 -4 6 -16 16 -27 22 -19 11 -18 11 8 12 21 0 27 -5 27 -22z m-126
-8 c-7 -7 -19 -7 -35 -1 -23 9 -22 10 11 10 23 1 31 -2 24 -9z m33 -82 c-3 -8
-6 -5 -6 6 -1 11 2 17 5 13 3 -3 4 -12 1 -19z m-1565 -30 c3 -20 10 -23 55
-26 41 -2 55 -8 64 -23 6 -12 9 -22 7 -24 -7 -7 -82 -17 -76 -10 29 31 -92 48
-172 25 -37 -11 -70 -5 -70 12 0 5 7 8 15 5 8 -4 17 -2 21 4 3 6 13 8 21 5 8
-3 11 -1 8 4 -3 6 -1 10 4 10 6 0 11 4 11 9 0 4 -11 6 -25 3 -18 -3 -25 0 -25
12 0 13 13 16 79 16 75 0 80 -1 83 -22z m58 6 c0 -8 -4 -12 -10 -9 -5 3 -10
10 -10 16 0 5 5 9 10 9 6 0 10 -7 10 -16z m120 -4 c-13 -24 -36 -26 -44 -3 -5
12 -9 14 -18 5 -17 -17 -38 -15 -38 3 0 12 13 15 55 15 53 0 55 -1 45 -20z
m450 1 c0 -22 -20 -28 -115 -35 -210 -16 -254 -18 -270 -9 -19 11 117 25 268
26 76 1 87 4 87 19 0 10 7 18 15 18 8 0 15 -9 15 -19z m700 3 c0 -8 -5 -12
-10 -9 -6 3 -13 -1 -16 -9 -5 -13 -8 -13 -20 -1 -22 22 -16 35 16 35 21 0 30
-5 30 -16z m80 -24 c0 -22 -4 -40 -10 -40 -5 0 -10 3 -11 8 0 4 -2 22 -3 40
-3 22 1 32 10 32 10 0 14 -13 14 -40z m90 5 c0 -30 -3 -35 -23 -35 -19 0 -23
6 -25 35 -2 31 0 35 23 35 22 0 25 -4 25 -35z m-755 16 c3 -5 1 -12 -5 -16 -5
-3 -10 1 -10 9 0 18 6 21 15 7z m325 -16 c0 -8 -2 -15 -4 -15 -2 0 -6 7 -10
15 -3 8 -1 15 4 15 6 0 10 -7 10 -15z m-863 -11 c-3 -3 -12 -4 -19 -1 -8 3 -5
6 6 6 11 1 17 -2 13 -5z m-897 -34 c0 -5 -2 -10 -4 -10 -3 0 -8 5 -11 10 -3 6
-1 10 4 10 6 0 11 -4 11 -10z m87 -6 c-3 -3 -12 -4 -19 -1 -8 3 -5 6 6 6 11 1
17 -2 13 -5z m2103 -24 c0 -5 -2 -10 -4 -10 -3 0 -8 5 -11 10 -3 6 -1 10 4 10
6 0 11 -4 11 -10z m-1860 -9 c-8 -5 -32 -11 -52 -15 -31 -6 -38 -4 -38 9 0 12
12 15 53 15 33 0 47 -4 37 -9z m-610 -5 c0 -3 -4 -8 -10 -11 -5 -3 -10 -1 -10
4 0 6 5 11 10 11 6 0 10 -2 10 -4z m1205 -13 c82 -39 12 -41 -116 -3 l-64 18
72 1 c49 1 84 -5 108 -16z m-790 -113 c3 -5 -3 -10 -14 -10 -12 0 -21 5 -21
10 0 6 6 10 14 10 8 0 18 -4 21 -10z m82 -6 c-3 -3 -12 -4 -19 -1 -8 3 -5 6 6
6 11 1 17 -2 13 -5z m43 -4 c0 -5 -4 -10 -10 -10 -5 0 -10 5 -10 10 0 6 5 10
10 10 6 0 10 -4 10 -10z m170 -10 c0 -5 -11 -10 -24 -10 -14 0 -28 5 -31 10
-4 6 7 10 24 10 17 0 31 -4 31 -10z m365 0 c-4 -6 8 -10 29 -10 19 0 38 -5 42
-11 5 -9 -9 -10 -50 -7 -31 3 -59 7 -62 11 -10 10 6 27 27 27 11 0 17 -4 14
-10z m-288 -6 c-3 -3 -12 -4 -19 -1 -8 3 -5 6 6 6 11 1 17 -2 13 -5z m1216
-41 c-7 -2 -19 -2 -25 0 -7 3 -2 5 12 5 14 0 19 -2 13 -5z m-1423 -67 c0 -11
-19 -15 -25 -6 -3 5 1 10 9 10 9 0 16 -2 16 -4z m-133 -42 c-3 -3 -12 -4 -19
-1 -8 3 -5 6 6 6 11 1 17 -2 13 -5z m70 0 c-3 -3 -12 -4 -19 -1 -8 3 -5 6 6 6
11 1 17 -2 13 -5z m82 -90 c19 -3 30 -9 24 -12 -14 -9 -114 -2 -109 7 6 10 45
12 85 5z m521 -70 c0 -2 -26 -3 -57 -3 -44 1 -51 3 -28 8 29 6 85 3 85 -5z
m-297 -11 c-7 -2 -19 -2 -25 0 -7 3 -2 5 12 5 14 0 19 -2 13 -5z m267 -13 c11
-8 7 -9 -15 -4 -37 8 -45 14 -19 14 10 0 26 -5 34 -10z m-260 -10 c-12 -8 -12
-10 -1 -10 8 0 11 -3 7 -7 -9 -9 -66 -11 -66 -2 0 8 41 28 60 28 13 1 13 0 0
-9z m235 -20 c-1 -11 -4 -23 -8 -27 -4 -4 5 -13 20 -20 16 -7 21 -11 12 -9 -9
2 -21 0 -27 -6 -17 -17 -54 9 -43 30 4 9 7 25 6 35 -2 12 3 17 19 17 16 0 22
-6 21 -20z m-348 -26 c-3 -3 -12 -4 -19 -1 -8 3 -5 6 6 6 11 1 17 -2 13 -5z
m186 -41 c-7 -2 -19 -2 -25 0 -7 3 -2 5 12 5 14 0 19 -2 13 -5z m1582 -14 c13
-6 4 -7 -30 -3 -27 4 -52 8 -54 10 -9 8 65 2 84 -7z m-175 -10 c0 -6 7 -9 15
-5 8 3 15 1 15 -4 0 -11 -11 -13 -34 -4 -18 7 -22 24 -6 24 6 0 10 -5 10 -11z
m-1400 -9 c0 -5 -7 -10 -16 -10 -8 0 -12 5 -9 10 3 6 10 10 16 10 5 0 9 -4 9
-10z m430 6 c0 -2 -7 -7 -16 -10 -8 -3 -12 -2 -9 4 6 10 25 14 25 6z m-293
-12 c-3 -3 -12 -4 -19 -1 -8 3 -5 6 6 6 11 1 17 -2 13 -5z m470 -10 c-3 -3
-12 -4 -19 -1 -8 3 -5 6 6 6 11 1 17 -2 13 -5z m787 -10 c9 -3 16 -10 16 -15
0 -4 -7 -6 -15 -3 -8 4 -15 2 -15 -2 0 -5 -11 -9 -25 -9 -14 0 -25 3 -25 8 0
4 12 7 26 7 14 0 23 4 19 10 -7 12 -3 12 19 4z m-699 -14 c13 -6 -7 -8 -60 -8
-60 0 -71 2 -45 8 48 10 81 10 105 0z m138 -7 c-7 -2 -19 -2 -25 0 -7 3 -2 5
12 5 14 0 19 -2 13 -5z m75 -8 c3 -3 -9 -5 -26 -5 -18 0 -32 5 -32 10 0 10 47
6 58 -5z m-675 -2 c-13 -2 -35 -2 -50 0 -16 2 -5 4 22 4 28 0 40 -2 28 -4z
m275 0 c-10 -2 -26 -2 -35 0 -10 3 -2 5 17 5 19 0 27 -2 18 -5z m97 -13 c-3
-5 -24 -10 -46 -10 -24 0 -38 4 -34 10 3 6 24 10 46 10 24 0 38 -4 34 -10z
m-265 -4 c0 -2 -13 -6 -29 -8 -17 -2 -28 -1 -25 4 5 8 54 12 54 4z m305 -16
c-17 -6 -14 -8 15 -12 19 -3 1 -5 -40 -5 -41 -1 -86 3 -100 8 -19 7 -14 8 23
5 26 -2 50 0 53 5 3 5 20 9 37 8 27 0 29 -2 12 -9z m698 3 c-7 -2 -19 -2 -25
0 -7 3 -2 5 12 5 14 0 19 -2 13 -5z m-850 -40 c-7 -2 -19 -2 -25 0 -7 3 -2 5
12 5 14 0 19 -2 13 -5z m864 1 c-3 -3 -12 -4 -19 -1 -8 3 -5 6 6 6 11 1 17 -2
13 -5z"/>
<path d="M2427 1850 c-3 -13 0 -20 9 -20 8 0 14 9 14 20 0 11 -4 20 -9 20 -5
0 -11 -9 -14 -20z"/>
<path d="M3295 2268 c-26 -20 -26 -22 -9 -29 29 -11 34 -10 34 6 0 8 -6 15
-12 16 -7 0 1 7 17 14 17 8 23 14 14 15 -9 0 -29 -10 -44 -22z"/>
<path d="M3075 2270 c3 -5 12 -7 20 -3 21 7 19 13 -6 13 -11 0 -18 -4 -14 -10z"/>
<path d="M3503 2153 c-20 -8 -15 -23 8 -23 11 0 29 -5 41 -11 29 -16 33 -4 7
20 -23 21 -33 24 -56 14z"/>
<path d="M4125 2077 c-55 -28 -58 -31 -35 -37 14 -4 38 -3 53 1 16 4 35 5 43
2 9 -3 14 2 14 17 0 14 -4 19 -12 14 -10 -6 -10 -4 0 7 13 14 16 30 5 27 -5 0
-35 -15 -68 -31z"/>
<path d="M1965 2013 c-33 -8 -36 -16 -29 -90 l7 -71 50 -6 c28 -3 53 -3 56 -1
7 7 -45 169 -55 171 -5 1 -18 -1 -29 -3z"/>
<path d="M3501 1886 c12 -10 59 -15 59 -6 0 5 -14 10 -32 10 -17 0 -29 -2 -27
-4z"/>
<path d="M1013 1720 c0 -30 2 -43 4 -27 2 15 2 39 0 55 -2 15 -4 2 -4 -28z"/>
<path d="M1953 1523 c9 -2 23 -2 30 0 6 3 -1 5 -18 5 -16 0 -22 -2 -12 -5z"/>
<path d="M1618 1453 c7 -3 16 -2 19 1 4 3 -2 6 -13 5 -11 0 -14 -3 -6 -6z"/>
<path d="M1799 1349 c-10 -6 -7 -9 11 -9 14 0 31 4 39 9 9 6 6 9 -12 9 -14 0
-31 -4 -38 -9z"/>
<path d="M1845 1330 c-3 -5 1 -10 10 -10 9 0 13 5 10 10 -3 6 -8 10 -10 10 -2
0 -7 -4 -10 -10z"/>
<path d="M2074 1303 c10 -10 46 -11 46 -1 0 4 -12 8 -27 8 -14 0 -23 -3 -19
-7z"/>
<path d="M1828 1239 c-9 -6 -8 -9 5 -15 9 -3 14 -10 11 -15 -10 -17 13 -9 30
10 16 18 16 19 -8 23 -14 3 -30 1 -38 -3z"/>
<path d="M1608 1233 c6 -2 18 -2 25 0 6 3 1 5 -13 5 -14 0 -19 -2 -12 -5z"/>
<path d="M1725 1225 c61 -17 85 -18 85 -5 0 6 -11 8 -26 4 -19 -5 -25 -4 -20
5 5 8 -7 11 -41 10 l-48 0 50 -14z"/>
<path d="M1853 1193 c-18 -2 -33 -8 -33 -14 0 -15 46 -10 60 6 7 8 11 14 9 13
-2 0 -19 -3 -36 -5z"/>
<path d="M2098 1193 c7 -3 16 -2 19 1 4 3 -2 6 -13 5 -11 0 -14 -3 -6 -6z"/>
<path d="M1551 1186 c12 -10 60 -16 54 -6 -3 5 -18 10 -32 10 -15 0 -24 -2
-22 -4z"/>
<path d="M1733 1183 c9 -2 25 -2 35 0 9 3 1 5 -18 5 -19 0 -27 -2 -17 -5z"/>
<path d="M1638 1173 c7 -3 16 -2 19 1 4 3 -2 6 -13 5 -11 0 -14 -3 -6 -6z"/>
<path d="M2263 1163 c9 -2 25 -2 35 0 9 3 1 5 -18 5 -19 0 -27 -2 -17 -5z"/>
<path d="M1575 1150 c19 -8 19 -9 1 -9 -11 -1 -17 -3 -14 -6 2 -3 26 -2 52 1
57 8 51 18 -12 21 -34 1 -41 -1 -27 -7z"/>
<path d="M1940 1150 c0 -12 66 -14 74 -2 3 5 -13 9 -35 10 -22 2 -39 -2 -39
-8z"/>
<path d="M1778 1133 c7 -3 16 -2 19 1 4 3 -2 6 -13 5 -11 0 -14 -3 -6 -6z"/>
<path d="M1885 1130 c-3 -5 1 -13 10 -16 22 -9 29 1 11 15 -10 8 -16 9 -21 1z"/>
<path d="M1590 1100 c0 -5 5 -10 10 -10 6 0 10 5 10 10 0 6 -4 10 -10 10 -5 0
-10 -4 -10 -10z"/>
<path d="M1555 1090 c3 -5 11 -10 16 -10 6 0 7 5 4 10 -3 6 -11 10 -16 10 -6
0 -7 -4 -4 -10z"/>
<path d="M968 1063 c6 -2 18 -2 25 0 6 3 1 5 -13 5 -14 0 -19 -2 -12 -5z"/>
<path d="M3363 1063 c-30 -11 16 -30 87 -35 41 -4 66 -3 55 2 l-20 7 20 5 c11
3 -7 7 -40 8 -46 1 -54 4 -35 10 21 7 19 8 -15 8 -22 0 -46 -2 -52 -5z"/>
<path d="M843 1033 c9 -2 25 -2 35 0 9 3 1 5 -18 5 -19 0 -27 -2 -17 -5z"/>
<path d="M4176 1019 c5 -8 -1 -10 -19 -7 -15 3 -28 0 -30 -7 -3 -7 8 -11 34
-11 31 0 39 4 39 18 0 10 -7 18 -16 18 -9 0 -12 -5 -8 -11z"/>
<path d="M3388 1013 c7 -3 16 -2 19 1 4 3 -2 6 -13 5 -11 0 -14 -3 -6 -6z"/>
<path d="M4083 1006 c4 -9 1 -16 -6 -16 -8 0 -6 -4 3 -10 17 -11 50 -13 35 -2
-5 4 -10 13 -10 21 0 8 -6 16 -14 19 -10 3 -12 0 -8 -12z"/>
<path d="M3968 998 c9 -9 15 -9 24 0 9 9 7 12 -12 12 -19 0 -21 -3 -12 -12z"/>
<path d="M3415 991 l-40 -7 38 -5 c20 -3 37 -2 37 2 0 4 10 10 23 12 37 7 -11
5 -58 -2z"/>
<path d="M130 978 c0 -10 48 -8 80 2 19 7 12 8 -27 7 -29 -1 -53 -5 -53 -9z"/>
<path d="M3100 980 c-23 -7 -23 -8 -3 -9 12 -1 25 4 28 9 3 6 5 10 3 9 -2 -1
-14 -5 -28 -9z"/>
<path d="M3888 983 c7 -3 16 -2 19 1 4 3 -2 6 -13 5 -11 0 -14 -3 -6 -6z"/>
<path d="M3743 973 c15 -2 39 -2 55 0 15 2 2 4 -28 4 -30 0 -43 -2 -27 -4z"/>
<path d="M3995 970 c-7 -12 12 -12 40 0 18 8 17 9 -7 9 -15 1 -30 -3 -33 -9z"/>
<path d="M5 965 c23 -8 83 -10 79 -3 -3 4 -24 8 -47 7 -23 0 -38 -2 -32 -4z"/>
<path d="M2948 958 c9 -9 15 -9 24 0 9 9 7 12 -12 12 -19 0 -21 -3 -12 -12z"/>
<path d="M3860 960 c-12 -8 -11 -10 5 -9 11 1 31 5 45 9 24 8 24 8 -5 9 -16 0
-37 -4 -45 -9z"/>
<path d="M4143 963 c9 -2 25 -2 35 0 9 3 1 5 -18 5 -19 0 -27 -2 -17 -5z"/>
<path d="M1310 949 c0 -5 11 -9 25 -9 14 0 25 2 25 4 0 2 -11 6 -25 8 -14 3
-25 1 -25 -3z"/>
<path d="M2528 953 c6 -2 18 -2 25 0 6 3 1 5 -13 5 -14 0 -19 -2 -12 -5z"/>
<path d="M4150 946 c0 -2 11 -6 25 -8 14 -3 25 -1 25 3 0 5 -11 9 -25 9 -14 0
-25 -2 -25 -4z"/>
<path d="M2550 929 c11 -8 2 -9 -35 -5 l-50 5 50 -14 c60 -17 68 -18 60 -5 -5
9 21 14 62 13 7 -1 10 3 7 8 -3 5 -29 9 -57 9 -39 0 -48 -3 -37 -11z"/>
<path d="M4088 933 c7 -3 16 -2 19 1 4 3 -2 6 -13 5 -11 0 -14 -3 -6 -6z"/>
<path d="M2895 920 c4 -6 -9 -10 -31 -10 -24 0 -35 -3 -28 -10 5 -5 29 -6 59
-1 28 5 43 9 35 10 -13 1 -13 2 0 11 12 8 9 10 -13 10 -16 0 -26 -4 -22 -10z"/>
<path d="M3788 923 c7 -3 16 -2 19 1 4 3 -2 6 -13 5 -11 0 -14 -3 -6 -6z"/>
<path d="M3953 923 c9 -2 23 -2 30 0 6 3 -1 5 -18 5 -16 0 -22 -2 -12 -5z"/>
<path d="M4006 922 c-9 -14 93 -26 150 -17 51 7 52 9 9 19 -23 5 -27 4 -15 -5
15 -11 -20 -8 -106 7 -18 3 -35 1 -38 -4z"/>
<path d="M3448 893 c7 -3 16 -2 19 1 4 3 -2 6 -13 5 -11 0 -14 -3 -6 -6z"/>
<path d="M571 881 c-21 -13 31 -26 67 -16 15 4 59 10 97 14 68 8 67 8 -40 9
-60 1 -117 -2 -124 -7z"/>
<path d="M2648 883 c12 -2 30 -2 40 0 9 3 -1 5 -23 4 -22 0 -30 -2 -17 -4z"/>
<path d="M272 860 c-24 -4 -47 -12 -51 -19 -4 -6 -25 -11 -47 -11 -93 2 -133
0 -156 -9 -41 -16 57 -23 160 -12 51 5 100 7 108 4 8 -3 27 0 43 7 34 14 71 5
71 -16 0 -8 8 -15 18 -15 9 -1 -1 -5 -23 -9 -24 -5 -42 -4 -46 2 -4 6 -27 9
-53 7 -25 -2 -46 -2 -46 1 0 7 -89 4 -128 -5 -20 -5 -29 -11 -22 -15 7 -4 -14
-11 -46 -15 l-59 -8 40 -13 c22 -7 58 -12 80 -12 27 1 32 2 15 6 -22 4 -19 6
20 18 53 16 90 18 90 4 0 -5 21 -10 46 -10 46 0 81 -20 69 -40 -3 -5 1 -10 10
-10 9 0 14 4 11 9 -9 14 54 25 67 12 8 -8 4 -11 -13 -11 -14 0 -20 -4 -14 -9
5 -4 27 -6 49 -3 36 5 38 6 15 13 -19 5 -14 7 23 8 30 1 46 -3 42 -9 -4 -6 14
-11 47 -11 48 -2 45 -2 -26 -10 -43 -5 -81 -10 -83 -13 -8 -7 159 0 182 8 14
4 13 3 -3 -5 -13 -7 -21 -18 -18 -25 3 -8 -8 -13 -29 -16 -27 -3 -32 -1 -23 9
9 11 0 12 -48 8 -32 -3 -75 -8 -94 -11 -19 -3 -35 -4 -36 -2 0 1 -7 -2 -15 -9
-20 -16 -105 -20 -102 -5 3 14 -23 16 -32 2 -3 -5 -29 -13 -58 -16 -41 -6 -47
-9 -32 -16 17 -7 17 -8 -4 -4 -13 3 -37 -2 -52 -10 -15 -7 -40 -14 -54 -14
-15 0 -35 -5 -46 -10 -18 -10 -19 -24 -19 -279 l0 -267 50 -3 c42 -2 50 1 50
16 1 17 2 17 15 -1 8 -11 15 -14 15 -8 0 14 46 16 55 2 10 -16 617 -13 639 3
15 11 8 17 -64 46 -72 29 -81 36 -76 55 3 11 6 24 6 29 0 4 7 7 16 7 10 0 14
-6 10 -15 -7 -20 14 -19 29 1 12 18 83 23 123 10 17 -7 22 -5 22 8 0 9 7 16
15 16 9 0 18 6 20 13 4 8 24 11 64 9 51 -3 60 -7 70 -28 9 -20 18 -24 55 -24
34 0 45 4 48 18 4 13 18 21 43 25 21 3 48 16 61 28 17 16 40 23 90 27 61 5 65
6 43 18 -19 10 -21 14 -9 18 8 3 24 4 35 3 14 -1 20 4 20 18 0 14 8 21 28 23
15 2 27 9 27 17 0 15 77 55 107 55 12 0 24 -7 27 -16 8 -21 0 -30 -16 -17 -16
12 -42 11 -48 -2 -8 -17 45 -17 110 0 65 17 100 13 100 -11 0 -10 14 -14 55
-14 59 0 67 7 35 30 -14 10 -16 16 -7 22 7 5 -1 8 -20 8 -18 0 -33 5 -33 10 0
6 12 10 26 10 15 0 33 8 40 17 10 15 26 17 86 16 66 -2 70 -1 38 9 l-35 11 28
8 c16 4 35 5 43 2 24 -9 66 6 60 22 -6 17 -2 18 40 6 17 -5 37 -5 44 -1 8 5
-9 11 -43 15 -36 5 -62 3 -70 -3 -15 -13 -57 -12 -75 1 -9 7 -9 13 -1 23 9 12
1 14 -47 14 l-58 0 34 -30 c24 -20 30 -29 19 -30 -9 0 -22 7 -29 15 -10 12
-34 15 -112 14 -54 -1 -102 1 -106 5 -8 8 19 27 29 20 4 -2 11 1 14 7 5 7 -3
9 -21 6 -28 -4 -44 -9 -93 -28 -13 -5 -26 -7 -30 -4 -10 11 29 34 87 50 62 18
63 26 3 27 -23 0 -41 4 -41 9 0 5 13 9 29 9 17 0 33 5 36 10 4 7 -14 10 -50 8
-40 -2 -54 -6 -51 -15 3 -7 -3 -17 -14 -23 -25 -13 -70 -13 -70 1 0 5 4 8 9 4
5 -3 13 0 17 6 5 8 0 10 -18 6 -14 -4 -41 -1 -59 6 l-34 12 45 6 c41 5 39 6
-22 7 -40 1 -68 -2 -68 -8 0 -5 -7 -10 -15 -10 -18 0 -20 16 -2 23 9 4 9 6 0
6 -6 1 -15 -3 -18 -9 -8 -13 -75 -13 -75 0 0 6 15 14 33 17 l32 7 -44 8 c-47
8 -72 1 -50 -13 9 -6 -16 -7 -61 -5 -83 5 -103 20 -39 29 23 3 46 13 51 21 16
28 141 11 184 -25 14 -11 96 0 89 11 -10 16 95 42 143 36 32 -4 41 -3 27 3
-11 5 -14 10 -7 10 6 1 12 6 12 11 0 13 -83 13 -96 0 -6 -6 -31 -4 -69 7 -63
17 -218 27 -195 13 7 -5 38 -6 67 -3 42 5 53 3 51 -7 -2 -9 11 -16 35 -20 60
-11 57 -23 -4 -15 -35 4 -59 3 -63 -3 -8 -13 -48 -3 -63 16 -11 14 -24 14
-105 3 -51 -6 -98 -17 -106 -23 -9 -8 -16 -9 -20 -1 -4 6 -16 13 -27 16 -17 4
-16 5 5 7 21 1 19 4 -15 16 -38 13 -35 13 63 9 65 -3 102 -1 102 5 0 5 -6 10
-12 10 -10 0 -9 3 1 9 21 14 -5 24 -45 17 -22 -5 -34 -3 -34 4 0 8 28 10 93 6
90 -5 90 -5 22 4 -112 15 -187 15 -238 1 -53 -15 -68 -29 -43 -43 29 -16 17
-25 -34 -26 -34 -1 -48 3 -44 10 5 8 -6 9 -37 4 -53 -9 -67 -9 -100 -1 -18 5
-31 1 -43 -10 -9 -9 -23 -14 -32 -11 -8 3 -12 2 -9 -4 3 -6 1 -10 -4 -10 -6 0
-11 5 -11 11 0 7 -13 9 -37 5 -21 -3 -32 -3 -25 0 6 3 12 10 12 16 0 6 -18 7
-47 3 -33 -4 -54 -2 -66 7 -16 12 -9 13 52 10 103 -6 161 4 161 29 0 14 -7 19
-26 19 -14 0 -23 -4 -19 -10 3 -5 -1 -10 -10 -10 -9 0 -14 3 -12 8 3 4 -7 8
-21 8 -15 1 -36 4 -47 6 -11 3 -14 3 -7 1 13 -5 17 -23 5 -23 -5 0 -27 7 -50
15 -22 8 -72 15 -110 17 -37 1 -70 4 -73 8 -3 3 -25 3 -48 0z m201 -37 c-7 -2
-21 -2 -30 0 -10 3 -4 5 12 5 17 0 24 -2 18 -5z m582 -13 c-11 -5 -38 -9 -60
-9 -31 0 -36 2 -20 9 11 5 38 9 60 9 31 0 36 -2 20 -9z m-295 -54 c0 -2 -9 -6
-20 -9 -11 -3 -18 -1 -14 4 5 9 34 13 34 5z m-305 -16 c-3 -5 -29 -10 -56 -10
-31 0 -48 4 -44 10 3 6 29 10 56 10 31 0 48 -4 44 -10z m558 3 c-7 -2 -19 -2
-25 0 -7 3 -2 5 12 5 14 0 19 -2 13 -5z m-370 -30 c-13 -2 -33 -2 -45 0 -13 2
-3 4 22 4 25 0 35 -2 23 -4z m140 -20 c-13 -2 -33 -2 -45 0 -13 2 -3 4 22 4
25 0 35 -2 23 -4z m107 -13 c18 -12 2 -12 -25 0 -13 6 -15 9 -5 9 8 0 22 -4
30 -9z m-69 -9 c-12 -8 -8 -11 15 -16 16 -3 49 -13 74 -21 l45 -14 -42 3 -42
2 15 -23 c9 -13 13 -26 10 -30 -11 -10 -121 -21 -159 -15 -21 3 -48 1 -60 -5
-54 -26 -197 -43 -197 -24 0 4 -16 6 -35 4 -19 -2 -33 -8 -30 -12 7 -12 -21
-20 -63 -19 -31 1 -33 2 -13 8 35 9 39 31 6 31 -14 0 -24 4 -20 10 10 15 73
23 113 13 20 -5 53 -6 72 -2 19 4 56 10 82 13 35 5 46 11 41 22 -4 10 2 14 21
14 14 0 26 -4 26 -10 0 -5 16 -10 35 -10 19 0 35 5 35 11 0 6 10 10 23 9 45
-4 77 0 77 10 0 6 -30 10 -71 10 -39 0 -80 5 -92 12 -20 11 -18 13 33 24 70
15 121 17 101 5z m157 -8 c-10 -2 -26 -2 -35 0 -10 3 -2 5 17 5 19 0 27 -2 18
-5z m-505 -80 c-7 -2 -19 -2 -25 0 -7 3 -2 5 12 5 14 0 19 -2 13 -5z m891 -31
c2 -4 -14 -8 -36 -8 -26 -1 -35 2 -27 7 17 11 56 12 63 1z m-531 -9 c-7 -2
-19 -2 -25 0 -7 3 -2 5 12 5 14 0 19 -2 13 -5z m731 -8 c-4 -8 -1 -15 6 -15 6
0 8 -5 5 -11 -5 -6 -25 -8 -53 -4 -58 8 -64 13 -23 21 17 4 34 11 37 15 9 16
34 10 28 -6z m-1469 -5 c4 -6 -7 -10 -24 -10 -17 0 -31 5 -31 10 0 6 11 10 24
10 14 0 28 -4 31 -10z m129 -9 c5 -8 -93 -22 -103 -14 -7 5 44 22 71 22 15 1
29 -3 32 -8z m626 -1 c-20 -13 -60 -13 -60 0 0 6 17 10 38 10 27 0 33 -3 22
-10z m610 -5 c0 -16 -16 -20 -24 -6 -3 5 -15 7 -26 4 -16 -4 -18 -9 -9 -25 6
-11 9 -21 7 -23 -2 -2 -34 -6 -72 -10 -50 -6 -67 -5 -62 4 4 6 19 11 34 11 15
0 34 5 42 10 11 7 5 10 -25 11 -22 0 -51 4 -65 8 l-25 7 29 8 c15 4 48 4 72 0
30 -4 44 -3 44 5 0 6 17 11 40 11 29 0 40 -4 40 -15z m220 -5 c0 -5 -10 -10
-22 -9 -22 0 -22 1 -3 9 11 5 21 9 23 9 1 1 2 -3 2 -9z m-534 -17 c-1 -14 11
-20 57 -27 38 -6 56 -13 53 -21 -5 -13 25 -32 58 -37 26 -4 32 -25 9 -31 -10
-2 5 -4 32 -3 44 1 50 -2 53 -20 3 -18 -5 -23 -40 -32 -25 -6 -47 -7 -53 -2
-6 5 -22 11 -35 13 -14 3 -38 10 -54 16 -35 14 -74 4 -41 -10 17 -7 16 -8 -10
-8 -103 -2 -120 -6 -117 -29 4 -25 -12 -27 -83 -13 l-40 8 42 12 c65 18 62 31
-6 31 -48 0 -61 3 -61 15 0 8 5 15 10 15 6 0 10 5 10 11 0 7 -37 9 -110 7 -61
-2 -110 -2 -110 -1 0 19 15 29 37 25 14 -3 28 0 32 6 4 7 20 7 51 0 25 -5 61
-12 80 -15 19 -3 40 -12 45 -20 9 -12 13 -11 29 6 17 19 17 20 -6 32 -14 8
-51 13 -95 12 -41 -1 -73 2 -73 8 0 5 -6 8 -12 6 -7 -1 -14 8 -16 20 -4 26 23
33 88 19 31 -6 45 -5 48 3 2 6 10 11 18 11 9 0 12 -4 9 -10 -8 -12 1 -12 95 5
103 18 108 18 106 -2z m610 -4 c104 1 136 -2 160 -15 l29 -16 -33 6 c-28 5
-35 2 -39 -14 -5 -17 -14 -20 -60 -20 -30 0 -52 -4 -49 -9 7 -10 -27 -21 -66
-21 -15 0 -30 -5 -34 -11 -4 -7 -17 0 -35 17 -18 17 -43 29 -62 31 -108 8
-147 37 -53 39 30 0 52 6 54 13 3 8 13 10 31 6 14 -4 85 -6 157 -6z m-1002 -9
c-11 -11 -37 -14 -74 -11 l-25 3 25 8 c37 12 86 12 74 0z m-59 -50 c15 -1 11
-5 -15 -17 -38 -17 -48 -17 -89 -1 l-26 11 25 7 c14 4 39 5 55 4 17 -2 39 -3
50 -4z m863 -18 c4 -13 -76 -14 -84 -1 -8 13 38 28 60 19 11 -4 22 -12 24 -18z
m-198 8 c0 -5 -4 -10 -9 -10 -6 0 -13 5 -16 10 -3 6 1 10 9 10 9 0 16 -4 16
-10z m-1270 -24 c0 -11 -19 -15 -25 -6 -3 5 1 10 9 10 9 0 16 -2 16 -4z m1074
-103 c-5 -5 -11 -12 -15 -16 -3 -4 -12 -1 -19 8 -11 13 -9 15 15 15 16 0 24
-3 19 -7z m-255 -22 c9 -6 10 -11 2 -15 -13 -8 -31 1 -31 15 0 11 11 11 29 0z
m-234 -61 c-27 -12 -43 -12 -25 0 8 5 22 9 30 9 10 0 8 -3 -5 -9z m-598 -6
c-3 -3 -12 -4 -19 -1 -8 3 -5 6 6 6 11 1 17 -2 13 -5z m160 0 c-3 -3 -12 -4
-19 -1 -8 3 -5 6 6 6 11 1 17 -2 13 -5z m-120 -10 c-3 -3 -12 -4 -19 -1 -8 3
-5 6 6 6 11 1 17 -2 13 -5z m553 -24 c0 -5 -6 -10 -14 -10 -8 0 -21 -3 -30 -6
-9 -3 -16 -1 -16 4 0 10 19 18 48 21 6 0 12 -3 12 -9z m-375 -27 c-17 -15 -40
-23 -68 -24 -23 -1 -52 -3 -65 -4 -13 -1 -27 5 -32 15 -6 12 -17 16 -30 13
-11 -3 -27 -3 -35 1 -38 14 2 21 125 21 l131 0 -26 -22z m189 -8 c-7 -16 -40
-20 -71 -8 -15 6 -13 9 12 14 52 11 65 10 59 -6z m71 -5 c3 -5 -3 -10 -15 -10
-12 0 -18 5 -15 10 3 6 10 10 15 10 5 0 12 -4 15 -10z m35 -10 c0 -5 -4 -10
-10 -10 -5 0 -10 5 -10 10 0 6 5 10 10 10 6 0 10 -4 10 -10z m75 -40 c-3 -5
-17 -10 -31 -10 -13 0 -24 5 -24 10 0 6 14 10 31 10 17 0 28 -4 24 -10z"/>
<path d="M1055 450 c22 -4 47 -4 55 1 10 5 -5 8 -40 8 -55 -1 -55 -1 -15 -9z"/>
<path d="M1185 411 c-6 -5 -23 -11 -40 -14 -19 -2 -12 -5 22 -6 55 -1 83 6 83
20 0 12 -53 12 -65 0z"/>
<path d="M1040 362 c0 -18 19 -24 37 -13 10 6 13 11 6 11 -6 0 -18 3 -27 6 -9
3 -16 1 -16 -4z"/>
<path d="M1100 350 c0 -12 17 -12 45 0 17 7 15 9 -12 9 -18 1 -33 -3 -33 -9z"/>
<path d="M1680 471 c0 -9 160 -25 168 -16 3 3 3 7 1 9 -9 8 -169 15 -169 7z"/>
<path d="M1630 427 c0 -9 11 -12 36 -9 25 3 32 7 23 13 -21 13 -59 11 -59 -4z"/>
<path d="M248 133 c7 -3 16 -2 19 1 4 3 -2 6 -13 5 -11 0 -14 -3 -6 -6z"/>
<path d="M835 860 c3 -5 12 -10 20 -10 8 0 17 5 20 10 4 6 -5 10 -20 10 -15 0
-24 -4 -20 -10z"/>
<path d="M2870 860 c0 -5 7 -7 15 -4 8 4 15 8 15 10 0 2 -7 4 -15 4 -8 0 -15
-4 -15 -10z"/>
<path d="M1463 843 c9 -2 23 -2 30 0 6 3 -1 5 -18 5 -16 0 -22 -2 -12 -5z"/>
<path d="M858 835 c-5 -6 -61 -13 -105 -14 -18 -1 -33 -6 -33 -12 0 -6 7 -8
16 -5 8 3 12 2 9 -4 -7 -11 18 -13 64 -4 17 4 28 10 25 15 -3 5 6 9 20 9 14 0
26 5 26 10 0 10 -13 14 -22 5z"/>
<path d="M2853 833 c9 -2 23 -2 30 0 6 3 -1 5 -18 5 -16 0 -22 -2 -12 -5z"/>
<path d="M1415 819 c18 -5 43 -5 60 0 25 8 20 9 -30 9 -51 0 -55 -1 -30 -9z"/>
<path d="M2800 820 c19 -13 30 -13 30 0 0 6 -10 10 -22 10 -19 0 -20 -2 -8
-10z"/>
<path d="M1358 813 c7 -3 16 -2 19 1 4 3 -2 6 -13 5 -11 0 -14 -3 -6 -6z"/>
<path d="M1478 803 c-16 -2 -28 -9 -28 -15 0 -13 80 -2 95 13 9 9 -14 10 -67
2z"/>
<path d="M2863 783 c9 -2 23 -2 30 0 6 3 -1 5 -18 5 -16 0 -22 -2 -12 -5z"/>
<path d="M1968 753 c6 -2 18 -2 25 0 6 3 1 5 -13 5 -14 0 -19 -2 -12 -5z"/>
<path d="M2005 740 c-14 -6 -4 -9 35 -8 42 0 49 2 30 8 -32 10 -41 10 -65 0z"/>
<path d="M2784 733 c15 -4 16 -7 5 -15 -11 -8 -10 -9 4 -4 10 3 28 6 38 6 11
0 17 5 14 10 -3 6 -23 9 -43 9 -20 -1 -28 -4 -18 -6z"/>
<path d="M215 720 c-27 -7 -27 -8 -5 -8 14 0 36 4 50 8 20 6 21 8 5 8 -11 0
-33 -4 -50 -8z"/>
<path d="M150 689 c-123 -11 -132 -14 -90 -26 l35 -11 -47 -1 c-33 -1 -48 -5
-48 -15 0 -9 19 -15 65 -19 76 -6 135 5 147 27 5 9 27 19 48 22 22 4 48 13 57
20 16 12 13 13 -27 12 -25 0 -88 -5 -140 -9z"/>
<path d="M1920 690 c0 -5 5 -10 11 -10 5 0 7 5 4 10 -3 6 -8 10 -11 10 -2 0
-4 -4 -4 -10z"/>
<path d="M2670 690 c0 -5 12 -10 26 -10 14 0 23 4 19 10 -3 6 -15 10 -26 10
-10 0 -19 -4 -19 -10z"/>
<path d="M2740 680 c0 -5 5 -10 10 -10 6 0 10 5 10 10 0 6 -4 10 -10 10 -5 0
-10 -4 -10 -10z"/>
<path d="M302 659 c-14 -5 -13 -8 7 -18 13 -7 21 -8 17 -3 -4 7 3 10 16 10 50
-3 88 3 88 13 0 11 -95 9 -128 -2z"/>
<path d="M1787 642 c-26 -2 -45 -7 -42 -13 8 -12 102 -12 109 0 8 13 -12 16
-67 13z"/>
<path d="M1988 619 c-15 -9 64 -18 81 -9 9 5 -2 9 -28 12 -23 2 -47 1 -53 -3z"/>
<path d="M2165 610 c6 -18 3 -19 -39 -14 -31 5 -46 3 -46 -5 0 -7 22 -11 60
-11 37 0 60 4 60 11 0 6 7 9 15 6 8 -4 17 -2 20 3 3 5 -7 12 -22 16 -15 3 -34
8 -41 10 -9 3 -11 -2 -7 -16z"/>
<path d="M1778 594 c-11 -11 5 -44 22 -44 17 0 60 31 60 44 0 7 -75 8 -82 0z
m35 -11 c-7 -2 -19 -2 -25 0 -7 3 -2 5 12 5 14 0 19 -2 13 -5z"/>
<path d="M15 580 c-17 -7 -15 -9 13 -9 17 -1 32 4 32 9 0 12 -17 12 -45 0z"/>
<path d="M2020 550 c0 -12 47 -12 75 0 15 6 8 9 -27 9 -27 1 -48 -3 -48 -9z"/>
<path d="M2348 543 c12 -2 30 -2 40 0 9 3 -1 5 -23 4 -22 0 -30 -2 -17 -4z"/>
<path d="M2312 491 c-19 -11 8 -21 56 -20 l37 1 -35 13 c-43 17 -42 17 -58 6z"/>
<path d="M3148 473 c6 -2 18 -2 25 0 6 3 1 5 -13 5 -14 0 -19 -2 -12 -5z"/>
<path d="M2360 430 c0 -5 5 -10 10 -10 6 0 10 5 10 10 0 6 -4 10 -10 10 -5 0
-10 -4 -10 -10z"/>
<path d="M1893 413 c4 -3 2 -12 -4 -20 -9 -10 -8 -13 5 -13 10 0 15 -4 12 -9
-3 -5 1 -12 10 -15 8 -3 12 -2 9 4 -3 6 5 10 19 10 14 0 26 -4 26 -9 0 -5 11
-12 25 -15 14 -4 25 -13 25 -21 0 -18 31 -28 64 -19 46 11 114 -5 140 -33 16
-17 30 -24 41 -19 14 5 15 9 5 22 -7 8 -20 12 -29 9 -10 -3 -9 0 4 10 25 20 8
34 -34 29 -25 -3 -64 12 -111 41 -8 5 -31 8 -52 6 -21 -1 -38 2 -38 7 0 16 47
20 95 9 33 -8 49 -7 57 1 8 8 5 9 -12 5 -13 -3 -25 -1 -30 7 -5 8 -44 13 -120
16 -62 2 -110 1 -107 -3z"/>
<path d="M2310 411 c0 -5 5 -13 10 -16 6 -3 10 -2 10 4 0 5 -4 13 -10 16 -5 3
-10 2 -10 -4z"/>
<path d="M2648 343 c-21 -2 -38 -9 -38 -15 0 -7 14 -8 38 -4 20 3 45 6 55 6
10 0 15 5 12 10 -3 6 -12 9 -18 8 -7 -1 -29 -3 -49 -5z"/>
<path d="M2755 320 c-3 -6 1 -7 9 -4 18 7 21 14 7 14 -6 0 -13 -4 -16 -10z"/>
<path d="M2615 300 c3 -5 21 -10 38 -9 31 1 31 1 7 9 -36 11 -52 11 -45 0z"/>
<path d="M1671 266 c-10 -11 -8 -15 6 -20 35 -10 118 -17 107 -9 -6 4 -13 16
-17 26 -8 21 -79 24 -96 3z"/>
<path d="M2485 270 c-4 -6 -14 -8 -23 -6 -10 3 -24 1 -32 -5 -11 -8 -2 -9 34
-5 27 3 57 6 68 6 11 0 16 5 13 10 -8 13 -52 13 -60 0z"/>
<path d="M1477 263 c-4 -3 -7 -12 -7 -20 0 -17 78 -7 100 13 12 12 7 14 -36
14 -28 0 -54 -3 -57 -7z"/>
<path d="M2093 263 c-31 -6 -29 -21 4 -29 15 -4 38 -13 52 -20 32 -17 63 -18
79 -2 19 19 15 25 -28 42 -40 16 -62 18 -107 9z"/>
<path d="M2566 255 c4 -8 -8 -16 -33 -22 -23 -5 -38 -15 -38 -23 0 -22 -16
-30 -62 -30 -25 0 -43 -5 -43 -11 0 -7 -7 -8 -17 -4 -10 4 -32 7 -49 6 -20 -1
-34 4 -38 14 -3 9 -17 15 -33 14 -17 -1 -21 -3 -10 -6 10 -3 17 -14 17 -29 0
-28 -6 -30 -26 -9 -17 16 -54 21 -54 6 0 -11 62 -41 84 -41 11 0 16 -9 16 -30
0 -19 -5 -30 -14 -30 -8 0 -16 -6 -19 -14 -10 -26 44 -40 168 -43 109 -2 117
-1 85 11 l-35 13 48 7 c26 4 56 4 67 1 11 -4 20 -2 20 3 0 9 -55 28 -102 35
-15 2 -25 0 -22 -4 3 -5 -26 -9 -65 -9 -38 0 -73 5 -76 10 -4 6 -15 8 -26 5
-14 -5 -17 -3 -13 9 3 9 10 16 15 16 5 0 9 7 9 15 0 17 16 20 25 5 4 -6 23 -7
45 -4 22 4 52 2 67 -5 41 -16 194 -13 211 4 14 14 -32 29 -90 29 -9 0 -15 3
-12 7 2 4 -1 9 -8 11 -25 9 5 28 43 28 21 0 39 5 39 10 0 6 7 10 16 10 8 0 13
-4 10 -9 -3 -5 1 -11 9 -15 10 -4 15 1 15 14 0 17 -7 20 -44 20 -47 0 -69 14
-36 23 32 8 23 25 -14 25 -24 0 -33 -4 -30 -13z"/>
<path d="M2750 230 c0 -5 12 -10 28 -10 21 0 24 2 12 10 -20 13 -40 13 -40 0z"/>
<path d="M1840 220 c0 -5 5 -10 10 -10 6 0 10 5 10 10 0 6 -4 10 -10 10 -5 0
-10 -4 -10 -10z"/>
<path d="M2998 223 c-21 -2 -38 -8 -38 -14 0 -5 5 -9 11 -9 6 0 19 -10 28 -21
l17 -22 27 27 c31 31 34 47 10 44 -10 -1 -35 -3 -55 -5z"/>
<path d="M2708 203 c6 -2 18 -2 25 0 6 3 1 5 -13 5 -14 0 -19 -2 -12 -5z"/>
<path d="M2128 178 c17 -8 26 -8 34 0 9 9 4 12 -22 11 -33 0 -34 -1 -12 -11z"/>
<path d="M2895 170 c-7 -11 0 -14 50 -25 29 -6 29 -6 11 14 -20 22 -51 28 -61
11z"/>
<path d="M1218 153 c7 -3 16 -2 19 1 4 3 -2 6 -13 5 -11 0 -14 -3 -6 -6z"/>
<path d="M1357 124 c3 -8 11 -14 19 -14 21 0 17 17 -5 23 -14 3 -18 1 -14 -9z"/>
<path d="M1460 125 c0 -16 17 -19 44 -9 26 10 18 24 -14 24 -20 0 -30 -5 -30
-15z"/>
<path d="M811 101 c-8 -11 -19 -17 -25 -14 -7 4 -8 3 -1 -4 21 -22 50 -22 78
1 16 12 22 23 15 24 -7 0 -22 3 -33 7 -14 4 -25 0 -34 -14z"/>
<path d="M1852 104 c3 -13 11 -18 26 -17 24 3 28 -7 10 -25 -9 -9 -9 -12 0
-12 7 0 12 4 12 9 0 5 9 13 20 16 17 6 18 8 6 21 -8 8 -29 17 -46 21 -28 5
-31 3 -28 -13z"/>
<path d="M1400 100 c-33 -5 -40 -8 -27 -14 9 -5 27 -6 39 -3 14 4 29 0 40 -10
16 -14 18 -14 18 -1 0 25 -22 34 -70 28z"/>
<path d="M2714 93 c18 -45 17 -61 -1 -65 -10 -2 7 -4 37 -5 30 0 56 -6 58 -12
2 -6 18 -11 35 -11 30 1 31 1 13 15 -11 8 -29 15 -40 16 -12 0 -15 3 -8 6 10
4 10 8 1 19 -9 11 -7 14 10 14 22 0 30 29 9 31 -96 8 -119 6 -114 -8z"/>
<path d="M3250 90 c0 -14 -7 -20 -22 -20 -16 0 -19 -3 -11 -11 10 -10 56 -9
52 1 -1 3 3 15 10 28 10 19 9 22 -9 22 -13 0 -20 -7 -20 -20z"/>
<path d="M1292 91 c-11 -6 -10 -10 4 -15 21 -8 56 2 49 15 -8 11 -36 12 -53 0z"/>
<path d="M3300 90 c0 -5 7 -10 15 -10 8 0 15 5 15 10 0 6 -7 10 -15 10 -8 0
-15 -4 -15 -10z"/>
<path d="M1030 79 c0 -5 -12 -8 -27 -7 -25 3 -28 0 -28 -25 -1 -16 -7 -32 -15
-37 -10 -7 5 -10 46 -10 64 0 84 11 84 46 0 15 -9 25 -30 33 -19 6 -30 6 -30
0z"/>
<path d="M1380 55 c-7 -8 -16 -12 -21 -9 -5 3 -9 -3 -9 -14 0 -14 7 -18 28
-17 15 1 35 6 44 9 15 7 15 9 -3 27 -23 23 -23 23 -39 4z"/>
<path d="M1745 63 c-11 -3 -24 -9 -29 -14 -6 -5 -15 -4 -23 2 -10 9 -13 8 -13
-5 0 -10 9 -16 24 -16 13 0 26 -6 28 -12 4 -10 10 -10 32 -1 21 10 34 10 69
-2 56 -20 128 -20 121 -1 -8 20 -41 26 -54 11 -11 -14 -50 -9 -50 6 0 5 -7 9
-15 9 -8 0 -15 7 -15 15 0 15 -31 18 -75 8z"/>
<path d="M2951 54 c0 -11 3 -14 6 -6 3 7 2 16 -1 19 -3 4 -6 -2 -5 -13z"/>
<path d="M2970 45 c0 -8 2 -15 4 -15 2 0 6 7 10 15 3 8 1 15 -4 15 -6 0 -10
-7 -10 -15z"/>
<path d="M3517 49 c7 -7 15 -10 18 -7 3 3 -2 9 -12 12 -14 6 -15 5 -6 -5z"/>
<path d="M1291 33 c-5 -10 -13 -17 -18 -15 -4 2 -9 -1 -11 -7 -2 -7 11 -11 32
-11 32 0 36 3 36 25 0 29 -24 34 -39 8z"/>
<path d="M1595 40 c-3 -5 1 -10 9 -10 9 0 16 5 16 10 0 6 -4 10 -9 10 -6 0
-13 -4 -16 -10z"/>
<path d="M1180 21 c0 -15 6 -19 27 -18 17 2 29 9 31 20 3 13 -4 17 -27 17 -24
0 -31 -4 -31 -19z"/>
<path d="M1635 30 c-3 -5 3 -10 14 -10 12 0 21 5 21 10 0 6 -6 10 -14 10 -8 0
-18 -4 -21 -10z"/>
<path d="M1560 10 l-35 -7 38 -2 c20 0 37 4 37 9 0 6 -1 9 -2 9 -2 -1 -19 -5
-38 -9z"/>
</g>
</svg>
